<svg width="24" height="24" viewBox="0 0 24 24" fill="none" xmlns="http://www.w3.org/2000/svg">
<path d="M9.83986 17.0802C9.70852 17.0803 9.57845 17.0545 9.45712 17.0043C9.33578 16.954 9.22559 16.8802 9.13286 16.7872L5.29302 12.9474C5.1993 12.8547 5.12482 12.7445 5.07386 12.6229C5.0229 12.5014 4.99648 12.371 4.9961 12.2392C4.99572 12.1074 5.0214 11.9769 5.07165 11.855C5.12191 11.7332 5.19575 11.6225 5.28894 11.5293C5.38212 11.4361 5.49281 11.3623 5.61464 11.312C5.73646 11.2617 5.86702 11.2361 5.99881 11.2364C6.1306 11.2368 6.26101 11.2632 6.38255 11.3142C6.50409 11.3651 6.61436 11.4396 6.70702 11.5333L9.83986 14.6661L17.293 7.21301C17.4807 7.02614 17.7348 6.92135 17.9996 6.92163C18.2645 6.92191 18.5184 7.02725 18.7056 7.21452C18.8929 7.40179 18.9982 7.6557 18.9985 7.92053C18.9987 8.18536 18.8939 8.43948 18.707 8.62712L10.5469 16.7873C10.4541 16.8803 10.3439 16.954 10.2226 17.0043C10.1013 17.0546 9.97119 17.0804 9.83986 17.0802Z" fill="white"/>
</svg>
