<svg width="32" height="32" viewBox="0 0 32 32" fill="none" xmlns="http://www.w3.org/2000/svg">
<path d="M10.6666 14.6666H21.3333C21.5302 14.6653 21.7244 14.6204 21.9019 14.5351C22.0794 14.4498 22.2359 14.3262 22.3599 14.1733C22.4903 14.0233 22.5854 13.8461 22.6385 13.6547C22.6916 13.4632 22.7012 13.2623 22.6666 13.0666L21.3333 6.39995C21.2709 6.09424 21.1034 5.82008 20.8597 5.62518C20.6161 5.43028 20.3119 5.32699 19.9999 5.33328H11.9999C11.688 5.32699 11.3837 5.43028 11.1401 5.62518C10.8965 5.82008 10.7289 6.09424 10.6666 6.39995L9.33326 13.0666C9.29509 13.2603 9.30041 13.46 9.34884 13.6514C9.39726 13.8428 9.48757 14.021 9.61326 14.1733C9.74016 14.3297 9.90086 14.4554 10.0833 14.5409C10.2657 14.6263 10.4652 14.6693 10.6666 14.6666ZM13.0933 7.99995H18.9066L19.7066 11.9999H12.2933L13.0933 7.99995ZM29.3333 18.3999C29.2709 18.0942 29.1034 17.8201 28.8597 17.6252C28.6161 17.4303 28.3119 17.327 27.9999 17.3333H19.9999C19.688 17.327 19.3837 17.4303 19.1401 17.6252C18.8965 17.8201 18.7289 18.0942 18.6666 18.3999L17.3333 25.0666C17.2951 25.2603 17.3004 25.46 17.3488 25.6514C17.3973 25.8428 17.4876 26.021 17.6133 26.1733C17.7402 26.3297 17.9009 26.4554 18.0833 26.5409C18.2657 26.6263 18.4652 26.6693 18.6666 26.6666H29.3333C29.5302 26.6653 29.7244 26.6204 29.9019 26.5351C30.0794 26.4498 30.2359 26.3262 30.3599 26.1733C30.4903 26.0233 30.5854 25.8461 30.6385 25.6547C30.6916 25.4632 30.7012 25.2623 30.6666 25.0666L29.3333 18.3999ZM20.2933 23.9999L21.0933 19.9999H26.9066L27.7066 23.9999H20.2933ZM11.9999 17.3333H3.99993C3.688 17.327 3.38374 17.4303 3.14012 17.6252C2.89649 17.8201 2.72893 18.0942 2.66659 18.3999L1.33326 25.0666C1.29509 25.2603 1.30042 25.46 1.34884 25.6514C1.39726 25.8428 1.48757 26.021 1.61326 26.1733C1.74016 26.3297 1.90086 26.4554 2.0833 26.5409C2.26573 26.6263 2.46516 26.6693 2.66659 26.6666H13.3333C13.5302 26.6653 13.7244 26.6204 13.9019 26.5351C14.0794 26.4498 14.2359 26.3262 14.3599 26.1733C14.4903 26.0233 14.5854 25.8461 14.6385 25.6547C14.6916 25.4632 14.7012 25.2623 14.6666 25.0666L13.3333 18.3999C13.2709 18.0942 13.1034 17.8201 12.8597 17.6252C12.6161 17.4303 12.3119 17.327 11.9999 17.3333ZM4.29326 23.9999L5.09326 19.9999H10.9066L11.7066 23.9999H4.29326Z" fill="#1D7AFC"/>
</svg>
